# xmcd
#
# Track frame offsets:
#	150
#	12070
#	21662
#	38762
#	52432
#	66557
#	76962
#	90047
#	98522
#	117415
#	126022
#	135707
#
# Disc length: 1995 seconds
#
# Revision: 2
# Processed by: cddbd v1.5.2PL0 Copyright (c) Steve Scherf et al.
# Submitted via: MusicWizard 7.2.0
#
DISCID=9c07c90c
DTITLE=Mundell Lowe - Guitar Moods
DYEAR=1956
DGENRE=Guitar
TTITLE0=Speak Low
TTITLE1=We'll Be Together Again
TTITLE2=Memories Of You
TTITLE3=Ill Wind
TTITLE4=You Don't Know What Love Is
TTITLE5=I Dream Too Much
TTITLE6=June In January
TTITLE7=I'll Take Romance
TTITLE8=It's So Peaceful In The Country
TTITLE9=Our Waltz
TTITLE10=I'm Old Fashioned
TTITLE11=Goodbye
EXTD=Mundell Lowe g - Al Klink bcl, fl - Phil Bodner oboe - Trigger Alpert b - Ed Shaughnessy dr;
EXTT0=
EXTT1=
EXTT2=
EXTT3=
EXTT4=
EXTT5=
EXTT6=
EXTT7=
EXTT8=
EXTT9=
EXTT10=
EXTT11=
PLAYORDER=
